<mxfile host="app.diagrams.net" modified="2021-06-10T14:59:12.255Z" agent="5.0 (Windows NT 10.0; Win64; x64) AppleWebKit/537.36 (KHTML, like Gecko) Chrome/91.0.4472.77 Safari/537.36" etag="FGgYFyzMzt8Z0lXnmDI9" version="14.7.6" type="github">
  <diagram id="QViLeHLDrhday703b7fY" name="Page-1">
    <mxGraphModel dx="1810" dy="956" grid="0" gridSize="10" guides="1" tooltips="1" connect="1" arrows="1" fold="1" page="0" pageScale="1" pageWidth="827" pageHeight="1169" math="0" shadow="0">
      <root>
        <mxCell id="0" />
        <mxCell id="1" parent="0" />
        <mxCell id="MdjrQjjgcwomE5C_Bdvl-35" style="edgeStyle=orthogonalEdgeStyle;rounded=0;orthogonalLoop=1;jettySize=auto;html=1;entryX=-0.001;entryY=0.885;entryDx=0;entryDy=0;entryPerimeter=0;" parent="1" source="MdjrQjjgcwomE5C_Bdvl-1" target="MdjrQjjgcwomE5C_Bdvl-14" edge="1">
          <mxGeometry relative="1" as="geometry" />
        </mxCell>
        <mxCell id="MdjrQjjgcwomE5C_Bdvl-36" value="Uses" style="edgeLabel;html=1;align=center;verticalAlign=middle;resizable=0;points=[];" parent="MdjrQjjgcwomE5C_Bdvl-35" vertex="1" connectable="0">
          <mxGeometry x="-0.2308" y="3" relative="1" as="geometry">
            <mxPoint as="offset" />
          </mxGeometry>
        </mxCell>
        <mxCell id="MdjrQjjgcwomE5C_Bdvl-1" value="slm_AccountTriggerHandler" style="swimlane;fontStyle=1;align=center;verticalAlign=top;childLayout=stackLayout;horizontal=1;startSize=26;horizontalStack=0;resizeParent=1;resizeParentMax=0;resizeLast=0;collapsible=1;marginBottom=0;" parent="1" vertex="1">
          <mxGeometry x="-344" y="-208" width="459" height="140" as="geometry" />
        </mxCell>
        <mxCell id="MdjrQjjgcwomE5C_Bdvl-2" value=" " style="text;strokeColor=none;fillColor=none;align=left;verticalAlign=top;spacingLeft=4;spacingRight=4;overflow=hidden;rotatable=0;points=[[0,0.5],[1,0.5]];portConstraint=eastwest;" parent="MdjrQjjgcwomE5C_Bdvl-1" vertex="1">
          <mxGeometry y="26" width="459" height="26" as="geometry" />
        </mxCell>
        <mxCell id="MdjrQjjgcwomE5C_Bdvl-3" value="" style="line;strokeWidth=1;fillColor=none;align=left;verticalAlign=middle;spacingTop=-1;spacingLeft=3;spacingRight=3;rotatable=0;labelPosition=right;points=[];portConstraint=eastwest;" parent="MdjrQjjgcwomE5C_Bdvl-1" vertex="1">
          <mxGeometry y="52" width="459" height="8" as="geometry" />
        </mxCell>
        <mxCell id="MdjrQjjgcwomE5C_Bdvl-4" value="+ UpdateValues&#xa; (IUpdatingPicklistStrategy updateMethode): void" style="text;strokeColor=none;fillColor=none;align=left;verticalAlign=top;spacingLeft=4;spacingRight=4;overflow=hidden;rotatable=0;points=[[0,0.5],[1,0.5]];portConstraint=eastwest;" parent="MdjrQjjgcwomE5C_Bdvl-1" vertex="1">
          <mxGeometry y="60" width="459" height="80" as="geometry" />
        </mxCell>
        <mxCell id="MdjrQjjgcwomE5C_Bdvl-17" style="edgeStyle=orthogonalEdgeStyle;rounded=0;orthogonalLoop=1;jettySize=auto;html=1;exitX=0.5;exitY=0;exitDx=0;exitDy=0;dashed=1;endArrow=block;endFill=0;" parent="1" source="MdjrQjjgcwomE5C_Bdvl-27" target="MdjrQjjgcwomE5C_Bdvl-13" edge="1">
          <mxGeometry relative="1" as="geometry">
            <mxPoint x="250" y="200" as="sourcePoint" />
          </mxGeometry>
        </mxCell>
        <mxCell id="MdjrQjjgcwomE5C_Bdvl-18" style="edgeStyle=orthogonalEdgeStyle;rounded=0;orthogonalLoop=1;jettySize=auto;html=1;exitX=0.534;exitY=0;exitDx=0;exitDy=0;exitPerimeter=0;dashed=1;endArrow=block;endFill=0;entryX=0.607;entryY=1.011;entryDx=0;entryDy=0;entryPerimeter=0;" parent="1" source="MdjrQjjgcwomE5C_Bdvl-31" target="MdjrQjjgcwomE5C_Bdvl-16" edge="1">
          <mxGeometry relative="1" as="geometry">
            <mxPoint x="605" y="200" as="sourcePoint" />
            <mxPoint x="464" y="46" as="targetPoint" />
          </mxGeometry>
        </mxCell>
        <mxCell id="MdjrQjjgcwomE5C_Bdvl-13" value="&lt;&lt;Interface&gt;&gt;&#xa;IUpdatingPicklistStrategy" style="swimlane;fontStyle=1;align=center;verticalAlign=top;childLayout=stackLayout;horizontal=1;startSize=40;horizontalStack=0;resizeParent=1;resizeParentMax=0;resizeLast=0;collapsible=1;marginBottom=0;" parent="1" vertex="1">
          <mxGeometry x="210" y="-170" width="418" height="172" as="geometry" />
        </mxCell>
        <mxCell id="MdjrQjjgcwomE5C_Bdvl-14" value="+ baseUrl: String&#xa;+ customFieldPfad: String&#xa;+ recordTypePfad: String" style="text;strokeColor=none;fillColor=none;align=left;verticalAlign=top;spacingLeft=4;spacingRight=4;overflow=hidden;rotatable=0;points=[[0,0.5],[1,0.5]];portConstraint=eastwest;" parent="MdjrQjjgcwomE5C_Bdvl-13" vertex="1">
          <mxGeometry y="40" width="418" height="54" as="geometry" />
        </mxCell>
        <mxCell id="MdjrQjjgcwomE5C_Bdvl-15" value="" style="line;strokeWidth=1;fillColor=none;align=left;verticalAlign=middle;spacingTop=-1;spacingLeft=3;spacingRight=3;rotatable=0;labelPosition=right;points=[];portConstraint=eastwest;" parent="MdjrQjjgcwomE5C_Bdvl-13" vertex="1">
          <mxGeometry y="94" width="418" height="8" as="geometry" />
        </mxCell>
        <mxCell id="MdjrQjjgcwomE5C_Bdvl-16" value="+ UpdateValues(String fieldId,String recordId): void&#xa;+ RemoveValues(String fieldId, String recordId)&#xa;- IncludeNewValuesThroughRecordType(String recordId,String label): void" style="text;strokeColor=none;fillColor=none;align=left;verticalAlign=top;spacingLeft=4;spacingRight=4;overflow=hidden;rotatable=0;points=[[0,0.5],[1,0.5]];portConstraint=eastwest;" parent="MdjrQjjgcwomE5C_Bdvl-13" vertex="1">
          <mxGeometry y="102" width="418" height="70" as="geometry" />
        </mxCell>
        <mxCell id="MdjrQjjgcwomE5C_Bdvl-27" value="ExecutingFromTriggerStrategy" style="swimlane;fontStyle=1;align=center;verticalAlign=top;childLayout=stackLayout;horizontal=1;startSize=26;horizontalStack=0;resizeParent=1;resizeParentMax=0;resizeLast=0;collapsible=1;marginBottom=0;" parent="1" vertex="1">
          <mxGeometry x="26" y="190" width="333" height="114" as="geometry" />
        </mxCell>
        <mxCell id="MdjrQjjgcwomE5C_Bdvl-28" value="+ idToNameMap: Map&lt;Id,String&gt;" style="text;strokeColor=none;fillColor=none;align=left;verticalAlign=top;spacingLeft=4;spacingRight=4;overflow=hidden;rotatable=0;points=[[0,0.5],[1,0.5]];portConstraint=eastwest;" parent="MdjrQjjgcwomE5C_Bdvl-27" vertex="1">
          <mxGeometry y="26" width="333" height="26" as="geometry" />
        </mxCell>
        <mxCell id="MdjrQjjgcwomE5C_Bdvl-29" value="" style="line;strokeWidth=1;fillColor=none;align=left;verticalAlign=middle;spacingTop=-1;spacingLeft=3;spacingRight=3;rotatable=0;labelPosition=right;points=[];portConstraint=eastwest;" parent="MdjrQjjgcwomE5C_Bdvl-27" vertex="1">
          <mxGeometry y="52" width="333" height="8" as="geometry" />
        </mxCell>
        <mxCell id="MdjrQjjgcwomE5C_Bdvl-34" value="+ UpdateValues(String fieldId,String recordId): void&#xa;+ RemoveValues(String fieldId, String recordId)&#xa;+ ChangeLabels(String fieldId,String recordId): void" style="text;strokeColor=none;fillColor=none;align=left;verticalAlign=top;spacingLeft=4;spacingRight=4;overflow=hidden;rotatable=0;points=[[0,0.5],[1,0.5]];portConstraint=eastwest;" parent="MdjrQjjgcwomE5C_Bdvl-27" vertex="1">
          <mxGeometry y="60" width="333" height="54" as="geometry" />
        </mxCell>
        <mxCell id="MdjrQjjgcwomE5C_Bdvl-31" value="ExecutingFromAnonymousStrategy" style="swimlane;fontStyle=1;align=center;verticalAlign=top;childLayout=stackLayout;horizontal=1;startSize=26;horizontalStack=0;resizeParent=1;resizeParentMax=0;resizeLast=0;collapsible=1;marginBottom=0;" parent="1" vertex="1">
          <mxGeometry x="485" y="156" width="380" height="120" as="geometry" />
        </mxCell>
        <mxCell id="MdjrQjjgcwomE5C_Bdvl-32" value="+ queryToGetObjectAsPicklistValues: String" style="text;strokeColor=none;fillColor=none;align=left;verticalAlign=top;spacingLeft=4;spacingRight=4;overflow=hidden;rotatable=0;points=[[0,0.5],[1,0.5]];portConstraint=eastwest;" parent="MdjrQjjgcwomE5C_Bdvl-31" vertex="1">
          <mxGeometry y="26" width="380" height="26" as="geometry" />
        </mxCell>
        <mxCell id="MdjrQjjgcwomE5C_Bdvl-33" value="" style="line;strokeWidth=1;fillColor=none;align=left;verticalAlign=middle;spacingTop=-1;spacingLeft=3;spacingRight=3;rotatable=0;labelPosition=right;points=[];portConstraint=eastwest;" parent="MdjrQjjgcwomE5C_Bdvl-31" vertex="1">
          <mxGeometry y="52" width="380" height="8" as="geometry" />
        </mxCell>
        <mxCell id="MdjrQjjgcwomE5C_Bdvl-30" value="+ UpdateValues(String fieldId,String recordId): void&#xa;+ RemoveValues(String fieldId, String recordId)" style="text;strokeColor=none;fillColor=none;align=left;verticalAlign=top;spacingLeft=4;spacingRight=4;overflow=hidden;rotatable=0;points=[[0,0.5],[1,0.5]];portConstraint=eastwest;" parent="MdjrQjjgcwomE5C_Bdvl-31" vertex="1">
          <mxGeometry y="60" width="380" height="60" as="geometry" />
        </mxCell>
      </root>
    </mxGraphModel>
  </diagram>
</mxfile>
